{"title":"The Painted Veil (2006) BDRip-AVC MediaClub (ENG. RUS)","uid":9540016,"size":3247116691,"categoryP":"video","categoryS":"hd___movies","magnet":"?xt=urn:btih:447e749a994a1baa75793fb84849fb125c51b1a5&amp;dn=The+Painted+Veil+%282006%29+BDRip-AVC+MediaClub+%28ENG.+RUS%29&amp;tr=udp%3A%2F%2Ftracker.openbittorrent.com%3A80&amp;tr=udp%3A%2F%2Fopen.demonii.com%3A1337&amp;tr=udp%3A%2F%2Ftracker.coppersurfer.tk%3A6969&amp;tr=udp%3A%2F%2Fexodus.desync.com%3A6969","seeders":13,"leechers":0,"uploader":"neni69","files":1,"time":1391021218,"description":" &lt;a href=&quot; http://mediaclub.tv/&quot; rel=&quot;nofollow&quot; target=&quot;_NEW&quot;&gt; http://mediaclub.tv/&lt;/a&gt;   Welcome to MediaClub\n\n===================================================================\n\nUnique ID                      : 178032410202063326322640550335338335177 (0x85EFCB8454B2A2C388CB6B2919214BC9)\nComplete name                  : E:MCRazrisowannaja.wual.2006.x264.BDRip(AVC)-MediaClubRazrisowannaja.wual.2006.x264.BDRip(AVC)-MediaClub.mkv\nFormat                         : Matroska\nFormat version                 : Version 4 / Version 2\nFile size                      : 3.02 GiB\nDuration                       : 2h 4mn\nOverall bit rate               : 3 465 Kbps\nMovie name                     : -= Release MediaClub =-\nEncoded date                   : UTC 2014-01-23 08:17:23\nWriting application            : mkvmerge v6.4.1 ('Omega Point') built on Sep 16 2013 22:05:10\nWriting library                : libebml v1.3.0 + libmatroska v1.4.1\n\nVideo\nID                             : 1\nFormat                         : AVC\nFormat/Info                    : Advanced Video Codec\nFormat profile                 : &lt;a class=&quot;__cf_email__&quot; href=&quot;/cdn-cgi/l/email-protection&quot; data-cfemail=&quot;c58daca2ad8589f1ebf4&quot;&gt;[email&amp;#160;protected]&lt;/a&gt;&lt;script cf-hash='f9e31' type=&quot;text/javascript&quot;&gt;\n/* &lt;![CDATA[ */!function(){try{var t=&quot;currentScript&quot;in document?document.currentScript:function(){for(var t=document.getElementsByTagName(&quot;script&quot;),e=t.length;e--;)if(t[e].getAttribute(&quot;cf-hash&quot;))return t[e]}();if(t&amp;&amp;t.previousSibling){var e,r,n,i,c=t.previousSibling,a=c.getAttribute(&quot;data-cfemail&quot;);if(a){for(e=&quot;&quot;,r=parseInt(a.substr(0,2),16),n=2;a.length-n;n+=2)i=parseInt(a.substr(n,2),16)^r,e+=String.fromCharCode(i);e=document.createTextNode(e),c.parentNode.replaceChild(e,c)}}}catch(u){}}();/* ]]&gt; */&lt;/script&gt;\nFormat settings, CABAC         : Yes\nFormat settings, ReFrames      : 11 frames\nCodec ID                       : V_MPEG4/ISO/AVC\nDuration                       : 2h 4mn\nBit rate                       : 1 670 Kbps\nWidth                          : 1 024 pixels\nHeight                         : 424 pixels\nDisplay aspect ratio           : 2.40:1\nFrame rate                     : 23.976 fps\nColor space                    : YUV\nChroma subsampling             : 4:2:0\nBit depth                      : 8 bits\nScan type                      : Progressive\nBits/(Pixel*Frame)             : 0.160\nStream size                    : 1.40 GiB (46%)\nTitle                          : Razrisowannaja.wual.2006.x264.BDRip(AVC)-neni\nWriting library                : x264 core 130 r2273 b3065e6\nEncoding settings              : cabac=1 / ref=11 / deblock=1:-2:-2 / analyse=0x3:0x113 / me=umh / subme=11 / psy=1 / psy_rd=1.00:0.20 / mixed_ref=1 / me_range=48 / chroma_me=1 / trellis=2 / 8x8dct=1 / cqm=0 / deadzone=21,11 / fast_pskip=0 / chroma_qp_offset=-3 / threads=9 / lookahead_threads=1 / sliced_threads=0 / nr=0 / decimate=0 / interlaced=0 / bluray_compat=0 / constrained_intra=0 / bframes=8 / b_pyramid=2 / b_adapt=2 / b_bias=0 / direct=3 / weightb=1 / open_gop=0 / weightp=2 / keyint=240 / keyint_min=23 / scenecut=40 / intra_refresh=0 / rc=2pass / mbtree=0 / bitrate=1670 / ratetol=1.0 / qcomp=0.60 / qpmin=0 / qpmax=69 / qpstep=4 / cplxblur=20.0 / qblur=0.5 / ip_ratio=1.40 / pb_ratio=1.30 / aq=1:1.00\nLanguage                       : English\nDefault                        : Yes\nForced                         : Yes\n\nAudio #1\nID                             : 2\nFormat                         : AC-3\nFormat/Info                    : Audio Coding 3\nMode extension                 : CM (complete main)\nFormat settings, Endianness    : Big\nCodec ID                       : A_AC3\nDuration                       : 2h 4mn\nBit rate mode                  : Constant\nBit rate                       : 448 Kbps\nChannel(s)                     : 6 channels\nChannel positions              : Front: L C R, Side: L R, LFE\nSampling rate                  : 48.0 KHz\nBit depth                      : 16 bits\nCompression mode               : Lossy\nStream size                    : 400 MiB (13%)\nTitle                          : Russian: 48 kHz, AC3, 3/2 (L,C,R,l,r) + LFE ch, ~448.00 kbps avg \nLanguage                       : Russian\nDefault                        : Yes\nForced                         : Yes\n\nAudio #2\nID                             : 3\nFormat                         : AC-3\nFormat/Info                    : Audio Coding 3\nMode extension                 : CM (complete main)\nFormat settings, Endianness    : Big\nCodec ID                       : A_AC3\nDuration                       : 2h 4mn\nBit rate mode                  : Constant\nBit rate                       : 448 Kbps\nChannel(s)                     : 6 channels\nChannel positions              : Front: L C R, Side: L R, LFE\nSampling rate                  : 48.0 KHz\nBit depth                      : 16 bits\nCompression mode               : Lossy\nStream size                    : 400 MiB (13%)\nTitle                          : Russian: 48 kHz, AC3, 3/2 (L,C,R,l,r) + LFE ch, ~448.00 kbps avg \nLanguage                       : Russian\nDefault                        : No\nForced                         : No\n\nAudio #3\nID                             : 4\nFormat                         : AC-3\nFormat/Info                    : Audio Coding 3\nMode extension                 : CM (complete main)\nFormat settings, Endianness    : Big\nCodec ID                       : A_AC3\nDuration                       : 2h 4mn\nBit rate mode                  : Constant\nBit rate                       : 448 Kbps\nChannel(s)                     : 6 channels\nChannel positions              : Front: L C R, Side: L R, LFE\nSampling rate                  : 48.0 KHz\nBit depth                      : 16 bits\nCompression mode               : Lossy\nStream size                    : 400 MiB (13%)\nTitle                          : Russian: 48 kHz, AC3, 3/2 (L,C,R,l,r) + LFE ch, ~448.00 kbps avg \nLanguage                       : Russian\nDefault                        : No\nForced                         : No\n\nAudio #4\nID                             : 5\nFormat                         : AC-3\nFormat/Info                    : Audio Coding 3\nMode extension                 : CM (complete main)\nFormat settings, Endianness    : Big\nCodec ID                       : A_AC3\nDuration                       : 2h 4mn\nBit rate mode                  : Constant\nBit rate                       : 448 Kbps\nChannel(s)                     : 6 channels\nChannel positions              : Front: L C R, Side: L R, LFE\nSampling rate                  : 48.0 KHz\nBit depth                      : 16 bits\nCompression mode               : Lossy\nStream size                    : 400 MiB (13%)\nTitle                          : English: 48 kHz, AC3, 3/2 (L,C,R,l,r) + LFE ch, ~448.00 kbps avg\nLanguage                       : English\nDefault                        : No\nForced                         : No\n\nText #1\nID                             : 6\nFormat                         : UTF-8\nCodec ID                       : S_TEXT/UTF8\nCodec ID/Info                  : UTF-8 Plain Text\nLanguage                       : Russian\nDefault                        : No\nForced                         : No\n\nText #2\nID                             : 7\nFormat                         : UTF-8\nCodec ID                       : S_TEXT/UTF8\nCodec ID/Info                  : UTF-8 Plain Text\nLanguage                       : English\nDefault                        : No\nForced                         : No\n\nMenu\n00:00:00.000                   : en:00:00:00.000\n00:10:41.683                   : en:00:10:41.683\n00:22:23.384                   : en:00:22:23.384\n00:31:34.851                   : en:00:31:34.851\n00:40:41.022                   : en:00:40:41.022\n00:50:23.896                   : en:00:50:23.896\n01:01:50.832                   : en:01:01:50.832\n01:13:21.188                   : en:01:13:21.188\n01:24:20.097                   : en:01:24:20.097\n01:33:36.611                   : en:01:33:36.611\n01:43:15.189                   : en:01:43:15.189\n01:58:08.248                   : en:01:58:08.248\n02:04:57.198                   : en:02:04:57.198","torrent":{"xt":"urn:btih:447e749a994a1baa75793fb84849fb125c51b1a5","amp;dn":"The+Painted+Veil+%282006%29+BDRip-AVC+MediaClub+%28ENG.+RUS%29","amp;tr":["udp%3A%2F%2Ftracker.openbittorrent.com%3A80","udp%3A%2F%2Fopen.demonii.com%3A1337","udp%3A%2F%2Ftracker.coppersurfer.tk%3A6969","udp%3A%2F%2Fexodus.desync.com%3A6969"],"infoHash":"447e749a994a1baa75793fb84849fb125c51b1a5","infoHashBuffer":{"type":"Buffer","data":[68,126,116,154,153,74,27,170,117,121,63,184,72,73,251,18,92,81,177,165]},"announce":[],"urlList":[]}}